<svg width="18" height="12" viewBox="0 0 18 12" fill="none" xmlns="http://www.w3.org/2000/svg">
<path fill-rule="evenodd" clip-rule="evenodd" d="M8.28908 1.86097C8.61468 2.30436 8.77788 2.83406 8.77788 3.45193C8.77788 4.08771 8.61454 4.60057 8.28491 4.98733C8.10028 5.20361 7.82953 5.40187 7.47146 5.58048C8.01511 5.77486 8.42479 6.08133 8.70376 6.50094C8.97962 6.91949 9.11856 7.42929 9.11856 8.02846C9.11856 8.64646 8.96035 9.20087 8.64284 9.6909C8.44204 10.0153 8.19044 10.289 7.88829 10.5112C7.54855 10.7661 7.14789 10.9396 6.68443 11.0348C6.22098 11.129 5.71992 11.1747 5.1783 11.1747H0.375V0.75H5.52626C6.82648 0.768837 7.74638 1.13876 8.28908 1.86097ZM2.49984 2.5602V4.86041H5.09218C5.55362 4.86041 5.92988 4.77411 6.22003 4.60151C6.50803 4.42891 6.65317 4.12338 6.65317 3.68706C6.65317 3.20011 6.46248 2.87962 6.08109 2.72291C5.75051 2.61484 5.33058 2.5602 4.82036 2.5602H2.49984ZM2.49984 6.58524V9.36546H5.08814C5.55066 9.36546 5.91169 9.30401 6.16828 9.1819C6.63578 8.95372 6.86906 8.52128 6.86906 7.88057C6.86906 7.33697 6.64387 6.96505 6.19052 6.76172C5.93703 6.6487 5.58098 6.58912 5.12453 6.58511H2.49984V6.58524ZM15.563 3.62253C16.1138 3.8626 16.5672 4.24348 16.9242 4.76316C17.2498 5.22138 17.4586 5.75309 17.5541 6.35706C17.6098 6.71015 17.6321 7.22195 17.6231 7.88751H11.8794C11.9139 8.66022 12.1857 9.20274 12.7049 9.51322C13.0193 9.70666 13.3976 9.80378 13.8419 9.80378C14.3094 9.80378 14.6919 9.68569 14.985 9.45069C15.1463 9.32271 15.2882 9.14623 15.4099 8.92006H17.5144C17.4586 9.37628 17.2031 9.84146 16.7507 10.3137C16.0448 11.0626 15.0559 11.4375 13.7851 11.4375C12.7354 11.4375 11.8094 11.1221 11.0092 10.4893C10.2049 9.85749 9.80533 8.82788 9.80533 7.4035C9.80533 6.06743 10.1674 5.04277 10.8906 4.32964C11.6158 3.61852 12.5539 3.26036 13.7091 3.26036C14.3957 3.26049 15.0133 3.3814 15.563 3.62253ZM12.4797 5.36419C12.1886 5.65783 12.0051 6.05554 11.93 6.55745H15.4828C15.4454 6.02188 15.2608 5.61709 14.9341 5.33841C14.6035 5.06174 14.1968 4.92387 13.7099 4.92387C13.1827 4.92387 12.7708 5.07069 12.4797 5.36419ZM11.3976 2.53334H15.9657V1.23601H11.3976V2.53334Z" fill="#1D566E"/>
</svg>
