<svg width="18" height="14" viewBox="0 0 18 14" fill="none" xmlns="http://www.w3.org/2000/svg">
<path d="M17.4375 3.86914L13.4109 6.87077V13.4231H16.2295C16.8884 13.4231 17.4375 12.8923 17.4375 12.2151V3.86914Z" fill="#1D566E"/>
<path d="M0.5625 3.86914L4.57077 6.88907V13.4414H1.77047C1.11158 13.4414 0.5625 12.9106 0.5625 12.2334V3.86914Z" fill="#1D566E"/>
<path d="M13.411 1.85596L9.00003 5.16872L4.58911 1.85596V6.87087L9.00003 10.1836L13.411 6.87087V1.85596Z" fill="#1D566E"/>
<path d="M0.5625 2.29515V3.86917L4.57077 6.8891V1.85589L3.32619 0.922456C3.03335 0.702825 2.6673 0.574707 2.28294 0.574707C1.33121 0.574707 0.5625 1.34342 0.5625 2.29515Z" fill="#1D566E"/>
<path d="M17.4375 2.29515V3.86917L13.4109 6.8708V1.85589L14.6738 0.922456C14.9666 0.702825 15.3327 0.574707 15.717 0.574707C16.6687 0.574707 17.4375 1.34342 17.4375 2.29515Z" fill="#1D566E"/>
</svg>
