<svg width="14" height="14" viewBox="0 0 14 14" fill="none" xmlns="http://www.w3.org/2000/svg">
<path d="M0.833967 4.75651H3.45389V13.188H0.833967V4.75651ZM2.14491 0.56543C2.98273 0.56543 3.66285 1.24554 3.66285 2.08534C3.66285 2.92513 2.98273 3.60524 2.14491 3.60524C1.30512 3.60524 0.625004 2.92513 0.625004 2.08534C0.623033 1.24752 1.30315 0.56543 2.14491 0.56543Z" fill="#1D566E"/>
<path d="M5.0979 4.75634H7.61137V5.90761H7.64685C7.99578 5.24524 8.84937 4.54541 10.1268 4.54541C12.7802 4.54541 13.2711 6.29202 13.2711 8.56104V13.1878H10.6512V9.08936C10.6512 8.1096 10.6334 6.85386 9.28898 6.85386C7.92481 6.85386 7.71585 7.91838 7.71585 9.01839V13.1898H5.0979V4.75634Z" fill="#1D566E"/>
</svg>
