<svg width="10" height="16" viewBox="0 0 10 16" fill="none" xmlns="http://www.w3.org/2000/svg">
<path d="M9.13769 14.1945C8.66009 14.7057 7.55129 15.0513 6.55769 15.0681H6.44969C3.11369 15.0681 2.39129 12.6153 2.39129 11.1849V7.20809H1.07849C0.92729 7.20809 0.80249 7.08569 0.80249 6.93209V5.05529C0.80249 4.85609 0.92729 4.68089 1.11449 4.61369C2.82569 4.01129 3.36329 2.51609 3.44249 1.38089C3.46409 1.07849 3.62249 0.929688 3.88649 0.929688H5.84489C5.99609 0.929688 6.12089 1.05209 6.12089 1.20569V4.38569H8.41289C8.56409 4.38569 8.68889 4.50809 8.68889 4.65929V6.91529C8.68889 7.06649 8.56649 7.19129 8.41289 7.19129H6.10889V10.8681C6.10889 11.7921 6.71849 12.0465 7.09289 12.0465C7.45289 12.0369 7.80809 11.9289 7.98569 11.8569C8.11769 11.8041 8.23289 11.7681 8.33849 11.7945C8.43449 11.8185 8.49929 11.8881 8.54249 12.0129L9.14969 13.7889C9.19769 13.9329 9.23849 14.0865 9.13769 14.1945Z" fill="#1D566E"/>
</svg>
