<svg width="16" height="14" viewBox="0 0 16 14" fill="none" xmlns="http://www.w3.org/2000/svg">
<path d="M5.21608 13.0958C10.8753 13.0958 13.9737 8.40622 13.9737 4.33822C13.9737 4.20622 13.9737 4.07182 13.9641 3.93982C14.5665 3.50302 15.0873 2.96542 15.5001 2.34622C14.9385 2.59582 14.3433 2.75902 13.7337 2.83102C14.3769 2.44702 14.8569 1.84222 15.0873 1.12942C14.4825 1.48702 13.8225 1.74142 13.1337 1.87582C11.9673 0.637424 10.0185 0.577424 8.78008 1.74142C7.98088 2.49262 7.64248 3.61342 7.88968 4.68142C5.41528 4.55662 3.10888 3.38782 1.54648 1.46542C0.730483 2.87182 1.14568 4.66942 2.49928 5.57422C2.00968 5.55982 1.52968 5.42782 1.10248 5.19022C1.10248 5.20222 1.10248 5.21662 1.10248 5.22862C1.10248 6.69262 2.13448 7.95502 3.57208 8.24542C3.11848 8.36782 2.64328 8.38702 2.18248 8.29822C2.58568 9.55102 3.74008 10.4102 5.05768 10.4366C3.96808 11.2934 2.62168 11.759 1.23688 11.7566C0.992083 11.7566 0.747283 11.7422 0.504883 11.711C1.90648 12.6158 3.54568 13.0958 5.21608 13.0934" fill="#1D566E"/>
</svg>
