<svg width="24" height="24" viewBox="0 0 24 24" fill="none" xmlns="http://www.w3.org/2000/svg">
<rect width="24" height="24" rx="12" fill="url(#paint0_radial_109_497)" fill-opacity="0.3"/>
<path d="M20.4375 8.86914L16.4109 11.8708V18.4231H19.2295C19.8884 18.4231 20.4375 17.8923 20.4375 17.2151V8.86914Z" fill="#1D566E"/>
<path d="M3.5625 8.86914L7.57077 11.8891V18.4414H4.77047C4.11158 18.4414 3.5625 17.9106 3.5625 17.2334V8.86914Z" fill="#1D566E"/>
<path d="M16.411 6.85596L12 10.1687L7.58911 6.85596V11.8709L12 15.1836L16.411 11.8709V6.85596Z" fill="#1D566E"/>
<path d="M3.5625 7.29515V8.86917L7.57077 11.8891V6.85589L6.32619 5.92246C6.03335 5.70282 5.6673 5.57471 5.28294 5.57471C4.33121 5.57471 3.5625 6.34342 3.5625 7.29515Z" fill="#1D566E"/>
<path d="M20.4375 7.29515V8.86917L16.4109 11.8708V6.85589L17.6738 5.92246C17.9666 5.70282 18.3327 5.57471 18.717 5.57471C19.6687 5.57471 20.4375 6.34342 20.4375 7.29515Z" fill="#1D566E"/>
<defs>
<radialGradient id="paint0_radial_109_497" cx="0" cy="0" r="1" gradientUnits="userSpaceOnUse" gradientTransform="translate(12 12) rotate(90) scale(12)">
<stop stop-color="#21ABA5"/>
<stop offset="1" stop-color="#163A5F" stop-opacity="0"/>
</radialGradient>
</defs>
</svg>
