<svg width="24" height="24" viewBox="0 0 24 24" fill="none" xmlns="http://www.w3.org/2000/svg">
<rect width="24" height="24" rx="12" fill="url(#paint0_radial_109_499)" fill-opacity="0.3"/>
<path d="M16.1377 18.1945C15.6601 18.7057 14.5513 19.0513 13.5577 19.0681H13.4497C10.1137 19.0681 9.39129 16.6153 9.39129 15.1849V11.2081H8.07849C7.92729 11.2081 7.80249 11.0857 7.80249 10.9321V9.05529C7.80249 8.85609 7.92729 8.68089 8.11449 8.61369C9.82569 8.01129 10.3633 6.51609 10.4425 5.38089C10.4641 5.07849 10.6225 4.92969 10.8865 4.92969H12.8449C12.9961 4.92969 13.1209 5.05209 13.1209 5.20569V8.38569H15.4129C15.5641 8.38569 15.6889 8.50809 15.6889 8.65929V10.9153C15.6889 11.0665 15.5665 11.1913 15.4129 11.1913H13.1089V14.8681C13.1089 15.7921 13.7185 16.0465 14.0929 16.0465C14.4529 16.0369 14.8081 15.9289 14.9857 15.8569C15.1177 15.8041 15.2329 15.7681 15.3385 15.7945C15.4345 15.8185 15.4993 15.8881 15.5425 16.0129L16.1497 17.7889C16.1977 17.9329 16.2385 18.0865 16.1377 18.1945Z" fill="#1D566E"/>
<defs>
<radialGradient id="paint0_radial_109_499" cx="0" cy="0" r="1" gradientUnits="userSpaceOnUse" gradientTransform="translate(12 12) rotate(90) scale(12)">
<stop stop-color="#21ABA5"/>
<stop offset="1" stop-color="#163A5F" stop-opacity="0"/>
</radialGradient>
</defs>
</svg>
