<svg width="24" height="24" viewBox="0 0 24 24" fill="none" xmlns="http://www.w3.org/2000/svg">
<rect width="24" height="24" rx="12" fill="url(#paint0_radial_109_495)" fill-opacity="0.3"/>
<path d="M9.21608 18.0958C14.8753 18.0958 17.9737 13.4062 17.9737 9.33822C17.9737 9.20622 17.9737 9.07182 17.9641 8.93982C18.5665 8.50302 19.0873 7.96542 19.5001 7.34622C18.9385 7.59582 18.3433 7.75902 17.7337 7.83102C18.3769 7.44702 18.8569 6.84222 19.0873 6.12942C18.4825 6.48702 17.8225 6.74142 17.1337 6.87582C15.9673 5.63742 14.0185 5.57742 12.7801 6.74142C11.9809 7.49262 11.6425 8.61342 11.8897 9.68142C9.41528 9.55662 7.10888 8.38782 5.54648 6.46542C4.73048 7.87182 5.14568 9.66942 6.49928 10.5742C6.00968 10.5598 5.52968 10.4278 5.10248 10.1902C5.10248 10.2022 5.10248 10.2166 5.10248 10.2286C5.10248 11.6926 6.13448 12.955 7.57208 13.2454C7.11848 13.3678 6.64328 13.387 6.18248 13.2982C6.58568 14.551 7.74008 15.4102 9.05768 15.4366C7.96808 16.2934 6.62168 16.759 5.23688 16.7566C4.99208 16.7566 4.74728 16.7422 4.50488 16.711C5.90648 17.6158 7.54568 18.0958 9.21608 18.0934" fill="#1D566E"/>
<defs>
<radialGradient id="paint0_radial_109_495" cx="0" cy="0" r="1" gradientUnits="userSpaceOnUse" gradientTransform="translate(12 12) rotate(90) scale(12)">
<stop stop-color="#21ABA5"/>
<stop offset="1" stop-color="#163A5F" stop-opacity="0"/>
</radialGradient>
</defs>
</svg>
